<svg id="Solid" height="512" viewBox="0 0 512 512" width="512" xmlns="http://www.w3.org/2000/svg"><g id="_02_copy_5" data-name="02 copy 5"><g><path d="m119.056 248h-30.112l4 8h22.112z"/><path d="m96 184h16v48h-16z"/><path d="m445.005 155-18.924 4.731a7.986 7.986 0 0 1 -1.338.239h-.023c-.067.006-.135.012-.2.016h-.05l-.176.008h-.063c-.076 0-.152 0-.229 0h-336.002c-.077 0-.153 0-.229 0h-.063l-.177-.008h-.048c-.068 0-.136-.01-.2-.016h-.023a7.986 7.986 0 0 1 -1.338-.239l-18.922-4.731 3.251 13h371.503z"/><path d="m400 184h16v48h-16z"/><path d="m38.457 48.892a1522.763 1522.763 0 0 0 181.554 16.172 7.959 7.959 0 0 1 3.989-1.064h64a7.959 7.959 0 0 1 4.448 1.35 1430.223 1430.223 0 0 0 181.074-15.219q1.965-8.2 3.928-16.408a1488.644 1488.644 0 0 1 -442.808.013q.565 2.246 1.125 4.446 1.323 5.223 2.69 10.71z"/><path d="m423.056 248h-30.112l4 8h22.112z"/><path d="m400 272h16v144h-16z"/><path d="m216 80.952a1536.33 1536.33 0 0 1 -165.687-14.179l4.246 21.227h161.441z"/><path d="m96 272h16v144h-16z"/><path d="m392 104h32v8h-32z"/><path d="m400 128h16v16h-16z"/><path d="m461.435 68.031a1447.981 1447.981 0 0 1 -165.435 13.245v6.724h161.441z"/><path d="m296 104v40h88v-16a8 8 0 0 1 -8-8v-16z"/><path d="m88 104h32v8h-32z"/><path d="m128 128v16h88v-40h-80v16a8 8 0 0 1 -8 8z"/><path d="m96 128h16v16h-16z"/><path d="m262.1 81.665q-15.033 0-30.1-.305v62.64h48v-62.444q-8.943.108-17.9.109z"/><path d="m424 480v-48h-32v48h-272v-48h-32v48h-72v16h480v-16z"/></g></g></svg>