<?xml version="1.0" encoding="iso-8859-1"?>
<!-- Generator: Adobe Illustrator 19.0.0, SVG Export Plug-In . SVG Version: 6.00 Build 0)  -->
<svg version="1.1" id="Capa_1" xmlns="http://www.w3.org/2000/svg" xmlns:xlink="http://www.w3.org/1999/xlink" x="0px" y="0px"
	 viewBox="0 0 511.999 511.999" style="enable-background:new 0 0 511.999 511.999;" xml:space="preserve">
<g>
	<g>
		<path d="M511.998,86.056c0.057-6.316-2.371-12.253-6.838-16.72l-6.883-6.883c-4.465-4.465-10.397-6.877-16.72-6.838
			c-6.316,0.057-12.209,2.591-16.597,7.139l-23.416,24.294l-0.01-0.01l-30.557,31.674l0.023,0.023L193.112,344.792l-25.905-25.904
			l123.62-119.154l94.991-91.559l7.446-7.177l0.023,0.023l31.674-30.557l-0.01-0.01l24.295-23.418
			c4.546-4.385,7.081-10.278,7.138-16.594c0.057-6.316-2.372-12.253-6.838-16.72l-6.884-6.884
			c-4.466-4.465-10.448-6.903-16.72-6.837c-6.316,0.057-12.209,2.591-16.597,7.14l-23.416,24.293l-0.01-0.01l-30.557,31.676
			l0.023,0.023l-7.177,7.445l-66.961,69.472l-143.75,149.139l-51.944-51.944l-72.672,72.672l53.281,53.281L0,431.826l24.558,24.558
			l68.64-66.16l28.577,28.578l-66.16,68.64l24.558,24.558l68.64-66.16l1.768,1.768l50.91,50.91l72.672-72.672l-46.482-46.482
			l-4.859-4.859l166.995-160.963l51.616-49.751l7.446-7.177l0.023,0.023l31.674-30.557l-0.01-0.01l24.296-23.418
			C509.407,98.265,511.942,92.372,511.998,86.056z M174.856,347.751l7.844,7.844l-50.511,52.403l-8.79-8.79L174.856,347.751z
			 M420.145,17.553c1.568-1.625,3.674-2.531,5.933-2.551c2.292-0.016,4.38,0.848,5.977,2.444l6.884,6.884
			c1.597,1.597,2.464,3.719,2.444,5.978c-0.021,2.257-0.926,4.365-2.549,5.93l-24.492,23.607L396.54,42.043L420.145,17.553z
			 M386.128,52.845l17.411,17.411l-10.083,9.719l-17.047-17.047L386.128,52.845z M365.996,73.731l16.657,16.656l-7.446,7.177
			L358.82,81.176L365.996,73.731z M283.884,158.921l64.523-66.941l15.997,15.997l-73.385,70.735l-13.346-13.346L283.884,158.921z
			 M127.083,299.981l-50.51,52.403l-3.536-3.536l50.51-52.403L127.083,299.981z M62.428,338.237l-28.332-28.332l51.457-51.457
			l27.386,27.386L62.428,338.237z M24.752,435.362l-3.729-3.729l220.86-229.135l6.609,6.609l10.607-10.607l-6.804-6.804
			l14.966-15.527l12.956,12.956L24.752,435.362z M112.792,388.601l-8.79-8.79l52.403-50.511l7.844,7.844L112.792,388.601z
			 M159.616,435.426l26.201-25.255l26.202-25.255l3.536,3.536l-52.403,50.511L159.616,435.426z M226.165,399.061l26.782,26.783
			L201.491,477.3l-27.729-27.729L226.165,399.061z M212.213,363.893l-37.004,35.668l-37.004,35.668l-57.837,55.748l-3.729-3.729
			l55.748-57.837l71.336-74.009l119.154-123.619l12.956,12.956L212.213,363.893z M387.629,194.812l-9.253-9.253l-10.607,10.607
			l9.058,9.058l-30.192,29.102l-13.346-13.346l70.735-73.385l15.997,15.997L387.629,194.812z M430.822,153.179l-16.388-16.388
			l7.177-7.446l16.657,16.657L430.822,153.179z M449.071,135.59l-17.047-17.047l9.719-10.083l17.411,17.411L449.071,135.59z
			 M494.448,91.852l-24.492,23.607l-17.801-17.801l23.605-24.49c1.568-1.625,3.674-2.531,5.933-2.551c0.026,0,0.051,0,0.077,0
			c2.229,0,4.322,0.866,5.9,2.444l6.883,6.883c1.596,1.597,2.464,3.719,2.444,5.978C496.977,88.179,496.071,90.286,494.448,91.852z"
			/>
	</g>
</g>
<g>
	<g>
		
			<rect x="420.975" y="22.675" transform="matrix(0.7071 -0.7071 0.7071 0.7071 103.4475 310.0965)" width="10.137" height="15.002"/>
	</g>
</g>
<g>
	<g>
		
			<rect x="406.381" y="34.735" transform="matrix(0.7071 -0.7071 0.7071 0.7071 91.4157 305.1691)" width="15.398" height="15.002"/>
	</g>
</g>
<g>
	<g>
		
			<rect x="222.919" y="418.254" transform="matrix(0.7071 -0.7071 0.7071 0.7071 -233.3855 288.0662)" width="16.23" height="15.002"/>
	</g>
</g>
<g>
	<g>
		
			<rect x="191.28" y="440.332" transform="matrix(0.7071 -0.7071 0.7071 0.7071 -255.4637 278.9213)" width="35.354" height="15.002"/>
	</g>
</g>
<g>
	<g>
		
			<rect x="85.703" y="279.045" transform="matrix(0.7071 -0.7071 0.7071 0.7071 -175.1401 150.2668)" width="16.231" height="15.002"/>
	</g>
</g>
<g>
	<g>
		
			<rect x="54.07" y="301.105" transform="matrix(0.7071 -0.7071 0.7071 0.7071 -197.2031 141.1214)" width="35.354" height="15.002"/>
	</g>
</g>
<g>
	<g>
		
			<rect x="477.162" y="76.017" transform="matrix(0.7071 -0.7071 0.7071 0.7071 82.1856 365.4497)" width="10.136" height="15.002"/>
	</g>
</g>
<g>
	<g>
		
			<rect x="462.575" y="88.078" transform="matrix(0.7071 -0.7071 0.7071 0.7071 70.1554 360.5275)" width="15.397" height="15.002"/>
	</g>
</g>
<g>
</g>
<g>
</g>
<g>
</g>
<g>
</g>
<g>
</g>
<g>
</g>
<g>
</g>
<g>
</g>
<g>
</g>
<g>
</g>
<g>
</g>
<g>
</g>
<g>
</g>
<g>
</g>
<g>
</g>
</svg>
