<svg id="Layer_1" enable-background="new 0 0 512.061 512.061" height="512" viewBox="0 0 512.061 512.061" width="512" xmlns="http://www.w3.org/2000/svg"><path d="m447.817 125.376c-1.767-10.602-13.304-16.486-22.922-11.688-60.109 29.973-94.31 87.594-110.284 153.421-13.119 54.069-10.661 99.896-10.55 101.82.696 12.041 13.994 19.015 24.293 12.745 1.512-.92 37.411-23.03 70.098-65.393 43.677-56.604 60.746-122.618 49.365-190.905z"/><path d="m504.075 402.176c-27.18-16.55-51.69-39.35-72.88-67.81-.799-1.937-3.404-2.285-4.673-.618-27.062 35.541-55.408 60.531-84.687 74.558-21.691 10.364-46.452 3.383-59.98-14.22-2.448-3.179-7.542-4.178-11.18.51-9.5 14.84-23.83 37.23-62.18 37.41-8.69.04-16.15-6.74-16.45-15.43-.32-9.101 6.96-16.57 15.99-16.57 21.18 0 26.96-9.02 35.69-22.66 5.607-8.747 11.33-17.392 20.42-23.33 4.566-3.017 7.508-7.934 7.703-13.514.153-4.257-3.993-7.358-8.036-6.019-107.915 35.767-100.175 33.522-103.777 33.522-6.7 0-12.94-4.24-15.18-10.94-2.79-8.38 1.74-17.44 10.12-20.24 133.629-44.543 78.96-26.195 111.744-37.014 5.638-1.86 9.758-6.695 10.771-12.545 9.834-56.823 31.807-110.503 66.534-154.896 2.81-3.591 3.955-8.205 3.156-12.694-10.526-59.138-11.146-103.35-11.146-103.831-.106-10.432-10.019-17.965-20.07-15.31l-304 80c-7.09 1.86-12 8.3-11.93 15.63.03 3.09 1.03 76.71 23.63 164.46 25.444 98.746 73.646 196.601 160.07 249.06 2.52 1.53 5.4 2.32 8.3 2.32 3.194 0-16.941 4.999 308.07-80.53 13.467-3.532 16.531-21.666 3.971-29.299zm-377.991-119.378c-7.065 0-13.529-4.714-15.445-11.863-2.287-8.535 2.778-17.309 11.314-19.596l30.909-8.282-4.141-15.455-30.91 8.282c-8.595 2.3-17.324-2.836-19.596-11.314-2.287-8.535 2.778-17.309 11.314-19.596l19.067-5.109-46.754-45.207c-6.353-6.143-6.522-16.272-.381-22.625 6.142-6.354 16.271-6.522 22.625-.381l47.899 46.314 18.325-64.059c2.431-8.496 11.286-13.414 19.783-10.982 8.496 2.431 13.413 11.287 10.982 19.783l-17.887 62.528 19.069-5.109c8.538-2.281 17.309 2.779 19.596 11.314s-2.778 17.309-11.314 19.596l-30.909 8.282 4.141 15.455 30.91-8.282c8.539-2.283 17.309 2.778 19.596 11.314 2.287 8.535-2.778 17.309-11.314 19.596l-30.91 8.282 4.141 15.455c2.722 10.157-4.945 20.145-15.465 20.145-7.065 0-13.529-4.714-15.445-11.863l-4.141-15.454c-33.016 8.848-32.125 8.831-35.059 8.831z"/></svg>