<svg id="Layer_2" height="512" viewBox="0 0 64 64" width="512" xmlns="http://www.w3.org/2000/svg" data-name="Layer 2"><path d="m15 51h8v4h-8z"/><path d="m25 51h6v4h-6z"/><path d="m41 51h8v4h-8z"/><path d="m33 51h6v4h-6z"/><path d="m60.09 45a57.781 57.781 0 0 1 -13.762-2.949c-1.659-.572-6.328-2.051-6.328-2.051h-16c-.119 0-4.293 1.452-6.284 2.041a92.916 92.916 0 0 1 -13.851 2.968 1 1 0 0 0 -.029 1.977l11.164 1.861v.153h34v-.153l11.164-1.861a1 1 0 0 0 -.074-1.986zm-23.09 1h-1a1 1 0 0 1 0-2h1a1 1 0 0 1 0 2zm5 0h-1a1 1 0 0 1 0-2h1a1 1 0 0 1 0 2z"/><path d="m54.274 33.038a51.255 51.255 0 0 1 -9.809-3.923c-1.525-.802-3.02-2.155-4.465-3.115h-16c-.245 0-3.17 2.3-4.531 3.153a29.434 29.434 0 0 1 -9.669 3.868 1 1 0 0 0 .2 1.979h14v3h7a1 1 0 0 1 2 0h7v-3h14a1 1 0 0 0 .274-1.962z"/><path d="m48.268 19.037a32.313 32.313 0 0 1 -8.729-3.88 32.067 32.067 0 0 1 -3.879-2.909 1 1 0 0 0 -.66-.248h-2v-11a1 1 0 0 0 -2 0v11h-2a1 1 0 0 0 -.659.248 32.133 32.133 0 0 1 -3.878 2.909 32.332 32.332 0 0 1 -8.73 3.88 1 1 0 0 0 .267 1.963h8v3h7a1 1 0 0 1 2 0h7v-3h8a1 1 0 0 0 .268-1.963z"/><path d="m60.481 62-3.7-4.625a1 1 0 0 0 -.781-.375h-48a1 1 0 0 0 -.781.375l-3.7 4.625h-3.519v2h64v-2z"/></svg>